# This file uses centimeters as units for non-parametric coordinates.

mtllib SolarPANEL.mtl
g default
v 2.592751 36.381965 21.207814
v 2.012264 35.567694 21.207814
v 17.006591 24.878331 21.207814
v 17.587078 25.692599 21.207814
v 2.592751 36.381965 9.832731
v 2.012264 35.567694 9.832731
v 17.006591 24.878331 9.832731
v 17.587078 25.692599 9.832731
v 16.932008 26.159597 22.052697
v 16.351518 25.345325 22.052697
v 16.351518 25.345325 21.207814
v 16.351518 25.345325 9.832731
v 16.351518 25.345325 9.051670
v 16.932008 26.159597 9.051670
v 16.932008 26.159597 9.832731
v 16.932008 26.159597 21.207814
v 3.348635 35.843095 22.052697
v 2.768148 35.028828 22.052697
v 2.768148 35.028828 21.207814
v 2.768148 35.028828 9.832731
v 2.768148 35.028828 9.051670
v 3.348635 35.843095 9.051670
v 3.348635 35.843095 9.832731
v 3.348635 35.843095 21.207814
v 16.752198 25.907376 21.207814
v 3.168824 35.590879 21.207814
v 16.752198 25.907376 9.832731
v 3.168824 35.590879 9.832731
v 17.006591 24.878331 21.662205
v 16.688624 25.105003 22.052697
v 17.587078 25.692599 21.662205
v 17.269111 25.919273 22.052697
v 2.330227 35.341020 22.052697
v 2.012264 35.567694 21.662205
v 2.910714 36.155289 22.052697
v 2.592751 36.381965 21.662205
v 2.012264 35.567694 9.442162
v 2.330227 35.341020 9.051670
v 2.592751 36.381965 9.442162
v 2.910714 36.155289 9.051670
v 16.688624 25.105003 9.051670
v 17.006591 24.878331 9.442162
v 17.269111 25.919273 9.051670
v 17.587078 25.692599 9.442162
vt 1.045503 0.407165
vt 1.056651 0.407166
vt 1.066230 0.413929
vt 1.066230 0.421100
vt 1.045503 0.421100
vt 1.066229 0.710032
vt 1.045502 0.710032
vt 0.766447 0.407164
vt 0.766447 0.421099
vt 1.066229 0.719347
vt 1.056649 0.726110
vt 1.045502 0.726110
vt 0.766446 0.710031
vt 0.747286 0.413928
vt 0.756865 0.407164
vt 0.747286 0.421099
vt 0.766446 0.726109
vt 0.747284 0.710030
vt 0.756864 0.726109
vt 0.747284 0.719346
vt 0.130123 0.421096
vt 0.130123 0.407162
vt 0.409179 0.407162
vt 0.409179 0.421096
vt 0.109396 0.413925
vt 0.118976 0.407162
vt 0.109396 0.421096
vt 0.418761 0.407162
vt 0.428340 0.413925
vt 0.428340 0.421096
vt 0.130123 0.710028
vt 0.109396 0.710028
vt 0.409179 0.710028
vt 0.428340 0.710028
vt 0.130123 0.726106
vt 0.118976 0.726106
vt 0.109396 0.719343
vt 0.409179 0.726106
vt 0.428340 0.719343
vt 0.418761 0.726106
vt -0.410099 0.876077
vt -0.410097 0.587145
vt -0.131040 0.587146
vt -0.131042 0.876078
vt 0.747281 1.028711
vt 0.428336 1.028708
vt 0.428336 1.017561
vt 0.747282 1.017564
vt 0.747281 1.038291
vt 0.428337 1.038288
vt 0.428339 0.738505
vt 0.747284 0.738508
vt 0.428339 0.728923
vt 0.747284 0.728926
vt 0.747284 0.719346
vt 0.428340 0.719344
vt 1.066232 0.393202
vt 1.385176 0.393202
vt 1.385176 0.404350
vt 1.066231 0.404349
vt 1.066232 0.114145
vt 1.385176 0.114146
vt 1.066230 0.413929
vt 1.385175 0.413929
vt 1.066232 0.104564
vt 1.385176 0.104564
vt 1.066231 0.094984
vt 1.385176 0.094985
vt -0.032248 0.308089
vt -0.032246 0.587146
vt -0.131043 0.308090
vt -0.032249 0.876078
vt -0.032251 1.155135
vt -0.131044 1.155134
vt 1.385176 0.421100
vt 1.385173 0.710032
vt 1.385174 0.719347
vt 1.066229 0.719347
vt 0.428342 0.413926
vt 0.747286 0.413928
vt -0.508892 0.876075
vt -0.508891 0.587144
vn 0.000000 0.000000 1.000000
vn 0.000000 0.000000 1.000000
vn 0.000000 0.000000 1.000000
vn 0.000000 0.000000 1.000000
vn -0.814270 0.580486 0.000000
vn -0.814270 0.580486 0.000000
vn -0.814270 0.580486 0.000000
vn -0.814270 0.580486 0.000000
vn 0.000000 0.000000 -1.000000
vn 0.000000 0.000000 -1.000000
vn 0.000000 0.000000 -1.000000
vn 0.000000 0.000000 -1.000000
vn 0.814269 -0.580488 0.000000
vn 0.814269 -0.580488 0.000000
vn 0.814269 -0.580488 0.000000
vn 0.814269 -0.580488 0.000000
vn -0.580484 -0.814272 0.000000
vn -0.580483 -0.814273 -0.000002
vn -0.580487 -0.814269 -0.000000
vn -0.580488 -0.814269 0.000000
vn -0.580485 -0.814271 -0.000002
vn -0.814270 0.580486 0.000000
vn -0.814270 0.580486 0.000000
vn -0.580484 -0.814272 0.000000
vn -0.580487 -0.814269 0.000000
vn 0.814269 -0.580488 0.000000
vn 0.814269 -0.580488 0.000000
vn 0.580488 0.814269 0.000000
vn 0.580490 0.814268 0.000000
vn 0.580490 0.814268 0.000000
vn 0.580488 0.814269 0.000000
vn -0.814270 0.580486 0.000000
vn -0.814270 0.580486 0.000000
vn 0.814269 -0.580488 0.000000
vn 0.814269 -0.580488 0.000000
vn 0.580487 0.814269 -0.000000
vn 0.580490 0.814267 -0.000001
vn 0.580495 0.814264 -0.000014
vn 0.000000 0.000000 1.000000
vn 0.000000 0.000000 1.000000
vn -0.580488 -0.814269 0.000000
vn -0.580488 -0.814269 0.000000
vn -0.580488 -0.814269 0.000000
vn -0.580488 -0.814269 0.000000
vn -0.580488 -0.814269 0.000000
vn 0.000000 0.000000 -1.000000
vn 0.000000 0.000000 -1.000000
vn 0.580489 0.814268 -0.000000
vn 0.580487 0.814269 0.000000
vn 0.580487 0.814269 0.000000
vn 0.580487 0.814269 0.000000
vn 0.580487 0.814269 0.000000
vn 0.580487 0.814269 0.000000
vn 0.580487 0.814269 0.000000
vn 0.580489 0.814268 0.000000
vn 0.580487 0.814269 0.000000
vn 0.000000 0.000000 1.000000
vn 0.000000 0.000000 1.000000
vn -0.580488 -0.814269 0.000000
vn -0.580488 -0.814269 0.000000
vn -0.580488 -0.814269 0.000000
vn -0.580488 -0.814269 0.000000
vn -0.580488 -0.814269 0.000000
vn -0.580488 -0.814269 0.000000
vn 0.000000 0.000000 -1.000000
vn 0.000000 0.000000 -1.000000
vn 0.580491 0.814267 0.000000
vn 0.580491 0.814267 -0.000000
vn 0.580491 0.814267 -0.000000
vn 0.580491 0.814267 0.000000
vn 0.580491 0.814267 0.000000
vn 0.580491 0.814266 0.000000
vn 0.000000 0.000000 -1.000000
vn 0.000000 0.000000 -1.000000
vn 0.000000 0.000000 -1.000000
vn 0.000000 0.000000 -1.000000
vn -0.814265 0.580494 0.000000
vn -0.814265 0.580494 0.000000
vn -0.814265 0.580494 0.000000
vn -0.814265 0.580494 0.000000
vn 0.000000 0.000000 1.000000
vn 0.000000 0.000000 1.000000
vn 0.000000 0.000000 1.000000
vn 0.000000 0.000000 1.000000
vn 0.814257 -0.580505 0.000000
vn 0.814257 -0.580505 0.000000
vn 0.814257 -0.580505 0.000000
vn 0.814257 -0.580505 0.000000
vn 0.580488 0.814269 0.000003
vn 0.580491 0.814266 0.000002
vn -0.580483 -0.814272 0.000002
vn -0.580485 -0.814271 0.000002
vn 0.575776 -0.410467 0.707106
vn 0.575776 -0.410467 0.707106
vn 0.575776 -0.410467 0.707106
vn 0.575776 -0.410467 0.707106
vn -0.575777 0.410468 0.707105
vn -0.575777 0.410468 0.707105
vn -0.575777 0.410468 0.707105
vn -0.575777 0.410467 0.707105
vn -0.575777 0.410467 -0.707105
vn -0.575777 0.410467 -0.707105
vn -0.575777 0.410467 -0.707106
vn -0.575777 0.410467 -0.707105
vn 0.575775 -0.410466 -0.707107
vn 0.575775 -0.410466 -0.707107
vn 0.575775 -0.410466 -0.707107
vn 0.575775 -0.410466 -0.707107
s 1
g Solarpannel
usemtl initialShadingGroup
f 30/63/1 32/64/2 9/75/3 10/4/4
s 2
f 34/45/5 36/46/6 1/47/7 2/48/8
s 3
f 13/16/9 14/30/10 43/79/11 41/80/12
s 4
f 3/57/13 4/58/14 31/59/15 29/60/16
s 5
f 3/1/17 29/2/18 11/5/19
f 10/4/20 11/5/19 30/3/21
f 29/2/18 30/3/21 11/5/19
s 2
f 2/48/8 1/47/7 5/51/22 6/52/23
s 5
f 7/8/24 3/1/17 11/5/19 12/9/25
s 4
f 7/61/26 8/62/27 4/58/14 3/57/13
s 7
f 16/21/28 4/22/29 8/23/30 15/24/31
s 2
f 6/52/23 5/51/22 39/53/32 37/54/33
s 4
f 42/65/34 44/66/35 8/62/27 7/61/26
s 7
f 15/24/31 8/23/30 14/30/36
f 8/23/30 44/28/37 14/30/36
f 44/28/37 43/29/38 14/30/36
s 1
f 10/4/4 9/75/3 17/76/39 18/6/40
s 5
f 11/5/19 10/4/20 18/6/41 19/7/42
f 12/9/25 11/5/19 19/7/42 20/13/43
f 13/16/44 12/9/25 20/13/43 21/18/45
s 3
f 21/18/46 22/34/47 14/30/10 13/16/9
s 7
f 23/33/48 15/24/31 14/30/36 22/34/49
s off
f 26/41/50 25/42/51 27/43/52 28/44/53
s 7
f 9/27/54 16/21/28 24/31/55 17/32/56
s 1
f 18/6/40 17/76/39 35/77/57 33/78/58
s 5
f 19/7/42 18/6/41 2/12/59
f 2/12/59 18/6/41 34/11/60
f 18/6/41 33/10/61 34/11/60
f 20/13/43 19/7/42 2/12/59 6/17/62
f 21/18/45 20/13/43 38/20/63
f 38/20/63 20/13/43 37/19/64
f 20/13/43 6/17/62 37/19/64
s 3
f 38/55/65 40/56/66 22/34/47 21/18/46
s 7
f 5/38/67 23/33/48 39/40/68
f 39/40/68 23/33/48 40/39/69
f 23/33/48 22/34/49 40/39/69
f 1/35/70 24/31/55 23/33/48 5/38/67
f 17/32/56 24/31/55 35/37/71
f 35/37/71 24/31/55 36/36/72
f 24/31/55 1/35/70 36/36/72
s off
f 24/81/73 16/82/74 25/42/75 26/41/76
f 16/69/77 15/70/78 27/43/79 25/71/80
f 15/70/81 23/72/82 28/44/83 27/43/84
f 23/72/85 24/73/86 26/74/87 28/44/88
s 7
f 4/22/29 16/21/28 31/26/89
f 9/27/54 32/25/90 16/21/28
f 32/25/90 31/26/89 16/21/28
s 5
f 7/8/24 12/9/25 42/15/91
f 42/15/91 12/9/25 41/14/92
f 41/14/92 12/9/25 13/16/44
s off
f 30/63/93 29/60/94 31/59/95 32/64/96
f 34/45/97 33/49/98 35/50/99 36/46/100
f 38/55/101 37/54/102 39/53/103 40/56/104
f 42/65/105 41/67/106 43/68/107 44/66/108
